<svg id="Layer_2" data-name="Layer 2" xmlns="http://www.w3.org/2000/svg" viewBox="0 0 374.43 478.38"><defs><style>.cls-1{fill:none;stroke:#231f20;stroke-width:10px;}.cls-2{font-size:80px;font-family:Krungthep;}</style></defs><title>svg1</title><path class="cls-1" d="M481,620c-14,15-325,13-344,2s-12-426-6-447c4-14.08,151.24-14.69,253-10L487,287C490.2,416.48,490.63,609.68,481,620Z" transform="translate(-119.62 -157.37)"/><path class="cls-1" d="M485,291c-6,4-105,3.57-108,0s-1.95-117.49,3-124.24C387.26,164.63,491,287,485,291Z" transform="translate(-119.62 -157.37)"/><path class="cls-1" d="M422.51,462.53c-9.34,9.34-222.67,9.12-235-3.17s-5.9-101.63.79-107.59,218.46-5.91,231.8,1.59S431.85,453.19,422.51,462.53Z" transform="translate(-119.62 -157.37)"/><text class="cls-2" transform="translate(108.59 279.77)">SVG</text></svg>